# xmcd
#
# Track frame offsets: 
#        150
#        10382
#        19229
#        32464
#        45118
#        57141
#        68016
#        77912
#        91620
#        103042
#
# Disc length: 1512 seconds
#
# Revision: 0
# Processed by: cddbd v1.5.2PL0 Copyright (c) Steve Scherf et al.
# Submitted via: ExactAudioCopy v0.99pb3
#
DISCID=6805e60a
DTITLE=Bill Carlisle - Hall Of Fame 2002
DYEAR=2005
DGENRE=Country
TTITLE0=Too Old To Cut The Mustard
TTITLE1=Is Zat You, Myrtle
TTITLE2=Rainbow At Midnight
TTITLE3=When Snowflakes Fall
TTITLE4=Doggy Joe
TTITLE5=No Help Wanted
TTITLE6=Knothole
TTITLE7=Tramp On The Street
TTITLE8=That Guy's Out Gunnin' For You
TTITLE9=Rainbow Follows Rain
EXTD=
EXTT0=
EXTT1=
EXTT2=
EXTT3=
EXTT4=
EXTT5=
EXTT6=
EXTT7=
EXTT8=
EXTT9=
PLAYORDER=
